<?xml version="1.0" encoding="UTF-8"?>
<svg id="Layer_2" data-name="Layer 2" xmlns="http://www.w3.org/2000/svg" viewBox="0 0 191.17 191.13" fill="#FFFFFF">
  <defs></defs>
  <g id="Layer_1-2" data-name="Layer 1">
    <g id="shape185">
      <path class="cls-1" d="M97.73,158.67v-25.99c0-1.72,1.39-3.11,3.11-3.11h87.23c1.72,0,3.11,1.39,3.11,3.11v55.34c0,1.72-1.39,3.11-3.11,3.11h-42.68c-.61,0-1.2-.18-1.71-.51l-44.55-29.34c-.87-.58-1.4-1.55-1.4-2.6Z"></path>
      <path class="cls-1" d="M97.73,93.89v-25.99c0-1.72,1.39-3.11,3.11-3.11h87.23c1.72,0,3.11,1.39,3.11,3.11v55.34c0,1.72-1.39,3.11-3.11,3.11h-42.68c-.61,0-1.2-.18-1.71-.51l-44.55-29.34c-.87-.58-1.4-1.55-1.4-2.6Z"></path>
      <path class="cls-1" d="M97.73,29.1V3.11C97.73,1.39,99.12,0,100.83,0h87.23c1.72,0,3.11,1.39,3.11,3.11v55.34c0,1.72-1.39,3.11-3.11,3.11h-42.68c-.61,0-1.2-.18-1.71-.51l-44.55-29.34c-.87-.58-1.4-1.55-1.4-2.6Z"></path>
      <path class="cls-1" d="M93.45,32.45v25.99c0,1.72-1.39,3.11-3.11,3.11H3.11c-1.72,0-3.11-1.39-3.11-3.11V3.11C0,1.39,1.39,0,3.11,0h42.68c.61,0,1.2.18,1.71.51l44.55,29.34c.87.58,1.4,1.55,1.4,2.6Z"></path>
      <path class="cls-1" d="M93.45,97.24v25.99c0,1.72-1.39,3.11-3.11,3.11H3.11c-1.72,0-3.11-1.39-3.11-3.11v-55.34c0-1.72,1.39-3.11,3.11-3.11h42.68c.61,0,1.2.18,1.71.51l44.55,29.34c.87.58,1.4,1.55,1.4,2.6Z"></path>
      <path class="cls-1" d="M93.45,162.02v25.99c0,1.72-1.39,3.11-3.11,3.11H3.11c-1.72,0-3.11-1.39-3.11-3.11v-55.34c0-1.72,1.39-3.11,3.11-3.11h42.68c.61,0,1.2.18,1.71.51l44.55,29.34c.87.58,1.4,1.55,1.4,2.6Z"></path>
    </g>
  </g>
</svg>