<?xml version="1.0" encoding="UTF-8"?>
<svg id="Layer_2" data-name="Layer 2" xmlns="http://www.w3.org/2000/svg" viewBox="0 0 1132.55 191.13" fill="#FFFFFF">
  <defs></defs>
  <g id="Layer_1-2" data-name="Layer 1">
    <g>
      <g>
        <path class="cls-1" d="M426.4,152.08V40.1c0-1.32,1.07-2.39,2.39-2.39h24.58c1.32,0,2.39,1.07,2.39,2.39v111.98c0,1.32-1.07,2.39-2.39,2.39h-24.58c-1.32,0-2.39-1.07-2.39-2.39Z"></path>
        <path class="cls-1" d="M774.62,152.08v-80.51c0-2.55-3.46-3.32-4.54-1.02l-38.84,82.54c-.39.84-1.23,1.37-2.16,1.37h-25.49c-.93,0-1.77-.54-2.16-1.37l-38.68-82.64c-1.08-2.31-4.55-1.54-4.55,1.01v80.62c0,1.32-1.07,2.39-2.39,2.39h-24.58c-1.32,0-2.39-1.07-2.39-2.39V40.1c0-1.32,1.07-2.39,2.39-2.39h44.78c.94,0,1.79.55,2.17,1.4l36.05,79.69c.85,1.87,3.5,1.87,4.35,0l36.05-79.69c.39-.85,1.24-1.4,2.17-1.4h44.61c1.32,0,2.39,1.07,2.39,2.39v111.98c0,1.32-1.07,2.39-2.39,2.39h-24.42c-1.32,0-2.39-1.07-2.39-2.39Z"></path>
        <path class="cls-1" d="M1128.38,56.98c-2.78-4.95-6.17-8.84-10.17-11.67-4-2.84-8.2-4.81-12.59-5.92-4.39-1.11-8.15-1.67-11.26-1.67h-102.53c-1.32,0-2.39,1.07-2.39,2.39v111.98c0,1.32,1.07,2.39,2.39,2.39h24.58c1.32,0,2.39-1.07,2.39-2.39v-35.09c0-1.32,1.07-2.39,2.39-2.39h73.17c2.89,0,6.5-.56,10.84-1.67,4.34-1.11,8.53-3.11,12.59-6.01,4.06-2.89,7.53-6.84,10.42-11.84,2.89-5,4.34-11.34,4.34-19.01s-1.39-14.15-4.17-19.1ZM1101.53,82.66c-1.11,1.73-2.42,3.09-3.92,4.09-1.5,1-2.98,1.7-4.42,2.09-1.45.39-2.5.58-3.17.58h-53.04c-.22,0-.43.06-.62.17l-15.76,14.24c-.8.48-1.81-.09-1.81-1.02v-37.53c0-1.32,1.07-2.39,2.39-2.39h68.83c.89,0,2.09.17,3.59.5,1.5.33,2.98.97,4.42,1.92,1.44.95,2.67,2.28,3.67,4,1,1.73,1.5,3.98,1.5,6.76s-.56,4.86-1.67,6.59Z"></path>
        <path class="cls-1" d="M594.79,110.34c2.06-.98,4.1-2.17,6.14-3.58,2.72-1.89,5.17-4.25,7.34-7.09,2.17-2.84,3.92-6.2,5.25-10.09,1.33-3.89,2-8.39,2-13.51,0-7.78-1.39-14.15-4.17-19.1-2.78-4.95-6.17-8.84-10.17-11.67-4-2.84-8.2-4.81-12.59-5.92-4.39-1.11-8.15-1.67-11.26-1.67h-102.53c-1.32,0-2.39,1.07-2.39,2.39v111.98c0,1.32,1.07,2.39,2.39,2.39h24.58c1.32,0,2.39-1.07,2.39-2.39v-35.09c0-1.32,1.07-2.39,2.39-2.39h57.31c.93,0,1.77.54,2.16,1.37l17.39,37.11c.39.84,1.23,1.37,2.16,1.37h26.08c1.75,0,2.9-1.82,2.16-3.4l-17.7-37.58c-.55-1.17-.09-2.59,1.08-3.14ZM584.5,82.66c-1.11,1.73-2.42,3.09-3.92,4.09-1.5,1-2.98,1.7-4.42,2.09-1.45.39-2.5.58-3.17.58h-53.04c-.22,0-.43.06-.62.17l-15.76,12.1c-.8.48-1.81-.09-1.81-1.02v-35.39c0-1.32,1.07-2.39,2.39-2.39h68.83c.89,0,2.09.17,3.59.5,1.5.33,2.97.97,4.42,1.92,1.44.95,2.67,2.28,3.67,4,1,1.73,1.5,3.98,1.5,6.76s-.56,4.86-1.67,6.59Z"></path>
        <path class="cls-1" d="M981.61,151.9l-65.33-113.76c-.38-.67-1.09-1.08-1.86-1.08h-35.46c-.77,0-1.48.41-1.86,1.08l-65.33,113.76c-.82,1.43.21,3.21,1.86,3.21h26.6c.77,0,1.47-.41,1.86-1.07l12.42-21.47c.38-.66,1.09-1.07,1.86-1.07h80.67c.77,0,1.47.41,1.86,1.07l12.42,21.47c.38.66,1.09,1.07,1.86,1.07h26.6c1.65,0,2.68-1.78,1.86-3.21ZM920.05,106.04h-36.3c-.58,0-1.14.18-1.61.5l-17.13,11.89c-.94.65-2.11-.42-1.54-1.41l19.55-34.2v.24s11.89-20.67,11.89-20.67c.82-1.43,2.89-1.43,3.72,0l23.27,40.44c.82,1.43-.21,3.21-1.86,3.21Z"></path>
        <path class="cls-1" d="M414.92,151.9l-65.33-113.76c-.38-.67-1.09-1.08-1.86-1.08h-35.46c-.77,0-1.48.41-1.86,1.08l-65.33,113.76c-.82,1.43.21,3.21,1.86,3.21h26.6c.77,0,1.47-.41,1.86-1.07l12.42-21.47c.38-.66,1.09-1.07,1.86-1.07h80.67c.77,0,1.47.41,1.86,1.07l12.42,21.47c.38.66,1.09,1.07,1.86,1.07h26.6c1.65,0,2.68-1.78,1.86-3.21ZM353.36,106.04h-36.3c-.58,0-1.14.18-1.61.5l-17.13,11.89c-.94.65-2.11-.42-1.54-1.41l19.55-34.2v.24s11.89-20.67,11.89-20.67c.82-1.43,2.89-1.43,3.72,0l23.27,40.44c.82,1.43-.21,3.21-1.86,3.21Z"></path>
      </g>
      <g id="shape185">
        <path class="cls-1" d="M97.73,158.67v-25.99c0-1.72,1.39-3.11,3.11-3.11h87.23c1.72,0,3.11,1.39,3.11,3.11v55.34c0,1.72-1.39,3.11-3.11,3.11h-42.68c-.61,0-1.2-.18-1.71-.51l-44.55-29.34c-.87-.58-1.4-1.55-1.4-2.6Z"></path>
        <path class="cls-1" d="M97.73,93.89v-25.99c0-1.72,1.39-3.11,3.11-3.11h87.23c1.72,0,3.11,1.39,3.11,3.11v55.34c0,1.72-1.39,3.11-3.11,3.11h-42.68c-.61,0-1.2-.18-1.71-.51l-44.55-29.34c-.87-.58-1.4-1.55-1.4-2.6Z"></path>
        <path class="cls-1" d="M97.73,29.1V3.11C97.73,1.39,99.12,0,100.83,0h87.23c1.72,0,3.11,1.39,3.11,3.11v55.34c0,1.72-1.39,3.11-3.11,3.11h-42.68c-.61,0-1.2-.18-1.71-.51l-44.55-29.34c-.87-.58-1.4-1.55-1.4-2.6Z"></path>
        <path class="cls-1" d="M93.45,32.45v25.99c0,1.72-1.39,3.11-3.11,3.11H3.11c-1.72,0-3.11-1.39-3.11-3.11V3.11C0,1.39,1.39,0,3.11,0h42.68c.61,0,1.2.18,1.71.51l44.55,29.34c.87.58,1.4,1.55,1.4,2.6Z"></path>
        <path class="cls-1" d="M93.45,97.24v25.99c0,1.72-1.39,3.11-3.11,3.11H3.11c-1.72,0-3.11-1.39-3.11-3.11v-55.34c0-1.72,1.39-3.11,3.11-3.11h42.68c.61,0,1.2.18,1.71.51l44.55,29.34c.87.58,1.4,1.55,1.4,2.6Z"></path>
        <path class="cls-1" d="M93.45,162.02v25.99c0,1.72-1.39,3.11-3.11,3.11H3.11c-1.72,0-3.11-1.39-3.11-3.11v-55.34c0-1.72,1.39-3.11,3.11-3.11h42.68c.61,0,1.2.18,1.71.51l44.55,29.34c.87.58,1.4,1.55,1.4,2.6Z"></path>
      </g>
    </g>
  </g>
</svg>